<mxfile host="app.diagrams.net" modified="2023-10-17T19:21:09.245Z" agent="Mozilla/5.0 (Windows NT 10.0; Win64; x64) AppleWebKit/537.36 (KHTML, like Gecko) Chrome/118.0.0.0 Safari/537.36" etag="51ENdI7awqBtfjRx9s9s" version="22.0.4" type="device">
  <diagram name="Strona-1" id="uOBEuh81KuqkiKeIpALq">
    <mxGraphModel dx="819" dy="447" grid="1" gridSize="10" guides="1" tooltips="1" connect="1" arrows="1" fold="1" page="1" pageScale="1" pageWidth="827" pageHeight="1169" math="0" shadow="0">
      <root>
        <mxCell id="0" />
        <mxCell id="1" parent="0" />
        <mxCell id="3b5bHOR4kWLDT7fnWK5z-1" value="pam" style="ellipse;whiteSpace=wrap;html=1;fillColor=#f8cecc;strokeColor=#b85450;" vertex="1" parent="1">
          <mxGeometry x="80" y="80" width="120" height="80" as="geometry" />
        </mxCell>
        <mxCell id="3b5bHOR4kWLDT7fnWK5z-2" value="bob" style="ellipse;whiteSpace=wrap;html=1;fillColor=#0050ef;fontColor=#ffffff;strokeColor=#001DBC;" vertex="1" parent="1">
          <mxGeometry x="160" y="200" width="120" height="80" as="geometry" />
        </mxCell>
        <mxCell id="3b5bHOR4kWLDT7fnWK5z-3" value="tom" style="ellipse;whiteSpace=wrap;html=1;fillColor=#0050ef;fontColor=#ffffff;strokeColor=#001DBC;" vertex="1" parent="1">
          <mxGeometry x="240" y="80" width="120" height="80" as="geometry" />
        </mxCell>
        <mxCell id="3b5bHOR4kWLDT7fnWK5z-4" value="liz" style="ellipse;whiteSpace=wrap;html=1;fillColor=#f8cecc;strokeColor=#b85450;" vertex="1" parent="1">
          <mxGeometry x="320" y="200" width="120" height="80" as="geometry" />
        </mxCell>
        <mxCell id="3b5bHOR4kWLDT7fnWK5z-5" value="" style="endArrow=classic;html=1;rounded=0;entryX=0.332;entryY=0.041;entryDx=0;entryDy=0;entryPerimeter=0;exitX=0.646;exitY=0.963;exitDx=0;exitDy=0;exitPerimeter=0;" edge="1" parent="1" source="3b5bHOR4kWLDT7fnWK5z-1" target="3b5bHOR4kWLDT7fnWK5z-2">
          <mxGeometry width="50" height="50" relative="1" as="geometry">
            <mxPoint x="160" y="160" as="sourcePoint" />
            <mxPoint x="200" y="200" as="targetPoint" />
          </mxGeometry>
        </mxCell>
        <mxCell id="3b5bHOR4kWLDT7fnWK5z-6" value="" style="endArrow=classic;html=1;rounded=0;exitX=0.332;exitY=1.002;exitDx=0;exitDy=0;exitPerimeter=0;entryX=0.67;entryY=0.041;entryDx=0;entryDy=0;entryPerimeter=0;" edge="1" parent="1" source="3b5bHOR4kWLDT7fnWK5z-3" target="3b5bHOR4kWLDT7fnWK5z-2">
          <mxGeometry width="50" height="50" relative="1" as="geometry">
            <mxPoint x="280" y="170" as="sourcePoint" />
            <mxPoint x="240" y="200" as="targetPoint" />
          </mxGeometry>
        </mxCell>
        <mxCell id="3b5bHOR4kWLDT7fnWK5z-8" value="" style="endArrow=classic;html=1;rounded=0;" edge="1" parent="1" source="3b5bHOR4kWLDT7fnWK5z-3" target="3b5bHOR4kWLDT7fnWK5z-4">
          <mxGeometry width="50" height="50" relative="1" as="geometry">
            <mxPoint x="320" y="160" as="sourcePoint" />
            <mxPoint x="360" y="200" as="targetPoint" />
          </mxGeometry>
        </mxCell>
        <mxCell id="3b5bHOR4kWLDT7fnWK5z-9" value="" style="endArrow=classic;html=1;rounded=0;" edge="1" parent="1" source="3b5bHOR4kWLDT7fnWK5z-2" target="3b5bHOR4kWLDT7fnWK5z-11">
          <mxGeometry width="50" height="50" relative="1" as="geometry">
            <mxPoint x="240" y="280" as="sourcePoint" />
            <mxPoint x="280" y="320" as="targetPoint" />
          </mxGeometry>
        </mxCell>
        <mxCell id="3b5bHOR4kWLDT7fnWK5z-10" value="ann" style="ellipse;whiteSpace=wrap;html=1;fillColor=#f8cecc;strokeColor=#b85450;" vertex="1" parent="1">
          <mxGeometry x="80" y="320" width="120" height="80" as="geometry" />
        </mxCell>
        <mxCell id="3b5bHOR4kWLDT7fnWK5z-11" value="pat" style="ellipse;whiteSpace=wrap;html=1;fillColor=#f8cecc;strokeColor=#b85450;" vertex="1" parent="1">
          <mxGeometry x="240" y="320" width="120" height="80" as="geometry" />
        </mxCell>
        <mxCell id="3b5bHOR4kWLDT7fnWK5z-12" value="jim" style="ellipse;whiteSpace=wrap;html=1;fillColor=#0050ef;strokeColor=#001DBC;fontColor=#ffffff;" vertex="1" parent="1">
          <mxGeometry x="240" y="440" width="120" height="80" as="geometry" />
        </mxCell>
        <mxCell id="3b5bHOR4kWLDT7fnWK5z-14" value="" style="endArrow=classic;html=1;rounded=0;" edge="1" parent="1" source="3b5bHOR4kWLDT7fnWK5z-2" target="3b5bHOR4kWLDT7fnWK5z-10">
          <mxGeometry width="50" height="50" relative="1" as="geometry">
            <mxPoint x="200" y="280" as="sourcePoint" />
            <mxPoint x="240" y="320" as="targetPoint" />
          </mxGeometry>
        </mxCell>
        <mxCell id="3b5bHOR4kWLDT7fnWK5z-15" value="" style="endArrow=classic;html=1;rounded=0;entryX=0.5;entryY=0;entryDx=0;entryDy=0;" edge="1" parent="1" source="3b5bHOR4kWLDT7fnWK5z-11" target="3b5bHOR4kWLDT7fnWK5z-12">
          <mxGeometry width="50" height="50" relative="1" as="geometry">
            <mxPoint x="300" y="400" as="sourcePoint" />
            <mxPoint x="340" y="440" as="targetPoint" />
          </mxGeometry>
        </mxCell>
      </root>
    </mxGraphModel>
  </diagram>
</mxfile>
